HIERARCHY
ROOT Hips
{
	OFFSET 0.000000 0.000000 0.000000
	CHANNELS 6 Xposition Yposition Zposition Zrotation Yrotation Xrotation 
	JOINT LHipJoint
	{
		OFFSET 0.000000 0.000000 0.000000
		CHANNELS 3 Zrotation Yrotation Xrotation
		JOINT LeftUpLeg
		{
			OFFSET 1.363060 -1.794630 0.839290
			CHANNELS 3 Zrotation Yrotation Xrotation
			JOINT LeftLeg
			{
				OFFSET 2.448110 -6.726130 0.000000
				CHANNELS 3 Zrotation Yrotation Xrotation
				JOINT LeftFoot
				{
					OFFSET 2.562200 -7.039590 0.000000
					CHANNELS 3 Zrotation Yrotation Xrotation
					JOINT LeftToeBase
					{
						OFFSET 0.157640 -0.433110 2.322550
						CHANNELS 3 Zrotation Yrotation Xrotation
						End Site
						{
							OFFSET 0.000000 0.000000 0.000000
						}
					}
				}
			}
		}
	}
	JOINT RHipJoint
	{
		OFFSET 0.000000 0.000000 0.000000
		CHANNELS 3 Zrotation Yrotation Xrotation
		JOINT RightUpLeg
		{
			OFFSET -1.305520 -1.794630 0.839290
			CHANNELS 3 Zrotation Yrotation Xrotation
			JOINT RightLeg
			{
				OFFSET -2.542530 -6.985550 0.000000
				CHANNELS 3 Zrotation Yrotation Xrotation
				JOINT RightFoot
				{
					OFFSET -2.568260 -7.056230 0.000000
					CHANNELS 3 Zrotation Yrotation Xrotation
					JOINT RightToeBase
					{
						OFFSET -0.164730 -0.452590 2.363150
						CHANNELS 3 Zrotation Yrotation Xrotation
						End Site
						{
							OFFSET 0.000000 0.000000 0.000000
						}
					}
				}
			}
		}
	}
	JOINT LowerBack
	{
		OFFSET 0.000000 0.000000 0.000000
		CHANNELS 3 Zrotation Yrotation Xrotation
		JOINT Spine
		{
			OFFSET 0.028270 2.035590 -0.193380
			CHANNELS 3 Zrotation Yrotation Xrotation
			JOINT Spine1
			{
				OFFSET 0.056720 2.048850 -0.042750
				CHANNELS 3 Zrotation Yrotation Xrotation
				JOINT Neck
				{
					OFFSET 0.000000 0.000000 0.000000
					CHANNELS 3 Zrotation Yrotation Xrotation
					JOINT Neck1
					{
						OFFSET -0.054170 1.746240 0.172020
						CHANNELS 3 Zrotation Yrotation Xrotation
						JOINT Head
						{
							OFFSET 0.104070 1.761360 -0.123970
							CHANNELS 3 Zrotation Yrotation Xrotation
							End Site
							{
								OFFSET 0.000000 0.000000 0.000000
							}
						}
					}
				}
				JOINT LeftShoulder
				{
					OFFSET 0.000000 0.000000 0.000000
					CHANNELS 3 Zrotation Yrotation Xrotation
					JOINT LeftArm
					{
						OFFSET 3.362410 1.200890 -0.311210
						CHANNELS 3 Zrotation Yrotation Xrotation
						JOINT LeftForeArm
						{
							OFFSET 4.983000 -0.000000 -0.000000
							CHANNELS 3 Zrotation Yrotation Xrotation
							JOINT LeftHand
							{
								OFFSET 3.483560 -0.000000 -0.000000
								CHANNELS 3 Zrotation Yrotation Xrotation
								JOINT LeftFingerBase
								{
									OFFSET 0.000000 0.000000 0.000000
									CHANNELS 3 Zrotation Yrotation Xrotation
									JOINT LeftHandIndex1
									{
										OFFSET 0.715260 -0.000000 -0.000000
										CHANNELS 3 Zrotation Yrotation Xrotation
										End Site
										{
											OFFSET 0.000000 0.000000 0.000000
										}
									}
								}
								JOINT LThumb
								{
									OFFSET 0.000000 0.000000 0.000000
									CHANNELS 3 Zrotation Yrotation Xrotation
									End Site
									{
										OFFSET 0.000000 0.000000 0.000000
									}
								}
							}
						}
					}
				}
				JOINT RightShoulder
				{
					OFFSET 0.000000 0.000000 0.000000
					CHANNELS 3 Zrotation Yrotation Xrotation
					JOINT RightArm
					{
						OFFSET -3.136600 1.374050 -0.404650
						CHANNELS 3 Zrotation Yrotation Xrotation
						JOINT RightForeArm
						{
							OFFSET -5.241900 -0.000000 -0.000000
							CHANNELS 3 Zrotation Yrotation Xrotation
							JOINT RightHand
							{
								OFFSET -3.444170 -0.000000 -0.000000
								CHANNELS 3 Zrotation Yrotation Xrotation
								JOINT RightFingerBase
								{
									OFFSET 0.000000 0.000000 0.000000
									CHANNELS 3 Zrotation Yrotation Xrotation
									JOINT RightHandIndex1
									{
										OFFSET -0.622530 -0.000000 -0.000000
										CHANNELS 3 Zrotation Yrotation Xrotation
										End Site
										{
											OFFSET 0.000000 0.000000 0.000000
										}
									}
								}
								JOINT RThumb
								{
									OFFSET 0.000000 0.000000 0.000000
									CHANNELS 3 Zrotation Yrotation Xrotation
									End Site
									{
										OFFSET 0.000000 0.000000 0.000000
									}
								}
							}
						}
					}
				}
			}
		}
	}
}
MOTION
Frames: 12
Frame Time: 0.008333
-10.941853 15.541194 5.002954 -7.389882 3.105258 -7.385735 14.864488 5.726315 5.243940 -32.926440 -15.952169 -22.631257 10.859489 8.851565 36.937394 -7.147024 -21.901679 -22.933997 0.063500 1.626000 4.473000 -11.747491 -2.087472 -6.410211 41.319487 -13.395634 19.064952 -7.467071 -13.805878 40.485961 1.514602 9.571028 -18.089790 -0.000200 -0.097900 0.269000 3.720630 1.525158 1.056903 12.857090 -0.206537 29.999832 -5.021378 1.013628 -12.215920 -9.436886 -1.021847 -27.287996 1.701308 0.928414 44.868386 2.870100 -0.380100 15.049700 1.316437 0.053302 1.332430 -98.688876 6.619092 12.034160 20.300577 -30.225467 -3.036453 2.817111 5.720274 -0.052570 19.547784 26.856725 6.232600 -7.125000 0.000000 0.000000 -12.027100 51.629200 -1.987600 -3.369298 -2.240644 -0.215782 92.483751 2.481265 7.915211 -18.927925 27.051023 -2.550094 -2.189788 0.402424 -4.003828 -25.021778 11.893515 -4.803300 7.125000 0.000000 0.000000 2.998000 -17.543400 1.957600 
-10.920817 15.558291 5.104999 -7.033359 2.760825 -7.532904 14.845204 5.629960 4.901328 -33.502860 -15.114971 -21.645992 10.797037 8.867416 36.756777 -7.226066 -22.119649 -22.991039 0.065900 1.656800 4.558000 -11.683836 -2.141357 -6.101549 40.728665 -12.585154 17.943253 -8.062387 -14.428167 43.317814 1.563020 9.372639 -16.678581 -0.000000 -0.006100 0.016700 3.586838 1.681488 1.188570 12.381994 0.029415 30.185246 -4.821286 1.152591 -12.337146 -9.227985 -0.998228 -27.260990 1.568955 0.917305 44.797552 2.798900 -0.390700 15.002900 1.302140 0.080280 1.322086 -98.496879 6.783621 12.617845 20.498909 -30.397596 -3.073680 2.688707 5.853883 -0.274350 18.954913 27.600172 6.210400 -7.125000 0.000000 0.000000 -12.750500 52.163900 -2.279100 -3.266782 -2.206763 -0.193629 92.340368 2.213547 8.663662 -19.506323 27.870572 -2.749875 -2.129688 0.237708 -4.766153 -24.607809 10.997025 -4.411700 7.125000 0.000000 0.000000 3.221300 -18.395300 2.043400 
-10.899961 15.580669 5.207849 -5.833940 2.591260 -8.008650 14.768238 5.326658 4.358561 -35.047680 -13.996283 -19.709015 10.629180 8.865700 36.136076 -6.989538 -21.799388 -23.151201 0.050300 1.447400 3.980800 -11.634932 -2.017351 -5.872198 39.053180 -12.143893 17.263363 -8.626121 -14.980750 45.959439 1.695628 9.586388 -15.915542 -0.024800 1.017500 -2.797100 2.834997 1.757706 1.639971 11.181938 0.238284 30.563704 -4.115918 1.292452 -12.717734 -9.267350 -0.915052 -27.197307 1.722073 0.966991 44.775848 2.889400 -0.363600 14.941700 1.351797 0.134391 1.310399 -98.438762 7.122693 13.059082 20.887111 -30.862418 -3.186943 2.647285 5.832207 -0.357807 18.906053 27.562915 6.200100 -7.125000 0.000000 0.000000 -12.759100 52.145600 -2.274900 -3.089964 -2.181063 -0.210701 91.988431 1.973770 9.799093 -19.916596 28.428304 -2.896124 -2.096157 0.136524 -5.421462 -24.404464 10.518793 -4.212900 7.125000 0.000000 0.000000 3.331200 -18.840500 2.080500 
-10.878030 15.606807 5.311504 -5.100418 2.449324 -8.365205 14.771665 5.108365 3.825598 -36.162250 -12.869643 -17.902016 10.493755 8.785978 35.293581 -6.741966 -21.336094 -23.168326 0.083100 1.859900 5.118700 -11.582669 -1.963335 -5.569388 37.885200 -11.672724 16.257082 -9.185398 -15.484188 48.551532 1.780121 9.785137 -15.658610 -0.105800 2.097200 -5.774300 2.476306 1.757244 1.799168 10.345768 0.321304 30.920887 -3.698397 1.358648 -12.819373 -9.059360 -0.763008 -27.138399 1.410824 1.218714 44.669695 2.829400 -0.306800 14.893400 1.353025 0.173069 1.309880 -98.270032 7.464266 13.804046 21.482540 -31.569473 -3.352067 2.430940 5.946980 -0.810950 18.069738 28.220018 6.077600 -7.125000 0.000000 0.000000 -13.646200 52.577500 -2.583700 -2.981278 -2.175571 -0.242545 91.773663 2.069679 10.513194 -20.188559 28.835691 -2.997341 -2.070362 0.090490 -5.782542 -24.286718 10.337396 -4.134100 7.125000 0.000000 0.000000 3.393600 -19.006700 2.107000 
-10.858785 15.631244 5.409431 -4.226355 2.383580 -8.383477 14.732321 5.012570 3.433307 -37.367310 -11.699922 -16.716329 10.337411 8.620579 34.225061 -6.682500 -21.280694 -23.043689 0.082800 1.856100 5.108300 -11.601701 -1.986921 -5.266780 36.776978 -10.971946 14.931115 -9.764092 -15.939117 51.121821 1.694870 9.574068 -15.884886 -0.152400 2.515600 -6.932800 2.098232 1.759125 1.627825 9.162239 0.486184 31.228775 -3.150706 1.438696 -12.848545 -8.621658 -0.565997 -27.017925 1.052990 1.463064 44.555702 2.722800 -0.237100 14.816300 1.409512 0.222097 1.296121 -98.009512 7.647595 14.532705 21.873634 -31.957456 -3.445691 2.217549 6.021657 -1.385521 17.209054 28.522772 5.850000 -7.125000 0.000000 0.000000 -14.448000 52.689300 -2.780600 -2.836861 -2.164717 -0.274993 91.649974 2.268008 11.233217 -20.387632 29.164512 -3.084112 -2.076436 0.035407 -6.655117 -24.363409 10.227076 -4.114000 7.125000 0.000000 0.000000 3.341900 -19.092700 2.068400 
-10.844195 15.655412 5.496169 -2.592919 2.441201 -8.192547 14.536810 4.897810 3.163571 -39.141681 -10.680015 -15.850720 10.103159 8.459992 33.068402 -6.669061 -21.394975 -22.806442 0.049400 1.434500 3.945300 -11.694630 -1.982019 -5.074762 34.927720 -10.286961 13.520374 -10.341896 -16.345824 53.604492 1.547172 9.243562 -16.567469 -0.150100 2.496300 -6.879400 1.204784 1.775262 1.549578 7.098122 0.812919 31.450613 -2.048095 1.587629 -13.108737 -8.374114 -0.414616 -27.255773 1.188079 1.552880 44.821691 2.795800 -0.175900 14.889400 1.601982 0.327784 1.273487 -97.871687 7.514581 14.783809 21.855349 -31.894917 -3.443499 2.349006 5.770906 -1.547191 18.000553 26.927213 5.771700 -7.125000 0.000000 0.000000 -13.248100 51.481600 -2.146600 -2.570306 -2.162598 -0.297190 91.487438 2.416474 12.258678 -20.547125 29.459653 -3.169790 -2.137599 -0.002730 -8.113354 -24.894947 10.479134 -4.309100 7.125000 0.000000 0.000000 3.014000 -18.796900 1.884700 
-10.835154 15.663648 5.579595 -1.657114 2.319154 -8.283676 14.467147 4.760052 2.805704 -40.183350 -9.795972 -14.722969 9.936911 8.318197 32.065535 -6.567215 -21.202293 -22.585056 0.109100 2.130000 5.865000 -11.680759 -1.992617 -4.817906 33.793857 -9.687103 12.283033 -10.865164 -16.716587 55.935858 1.294795 8.706521 -17.633885 -0.123500 2.265800 -6.240800 0.600268 1.808737 1.742094 6.045256 0.995402 31.613512 -1.423681 1.707610 -13.302942 -8.594948 -0.405659 -27.521826 1.625274 1.497639 45.033453 2.981800 -0.157900 14.994000 1.720121 0.426839 1.256789 -97.694114 7.324833 15.266412 21.909825 -31.961161 -3.457611 2.342670 5.721280 -1.616263 17.970683 26.623568 5.695100 -7.125000 0.000000 0.000000 -13.176400 51.226000 -2.051000 -2.410417 -2.176680 -0.303413 91.364590 2.593685 12.893703 -20.842185 29.947744 -3.297018 -2.140173 -0.054907 -8.513237 -25.115274 10.218442 -4.261400 7.125000 0.000000 0.000000 2.855700 -19.018700 1.771400 
-10.827366 15.668034 5.665885 -1.564010 2.015818 -8.750308 14.568320 4.588552 2.285253 -40.488179 -8.778275 -13.060129 9.815873 8.142396 31.027288 -6.338562 -20.726182 -22.628326 0.194300 2.838900 7.830400 -11.556209 -2.010233 -4.455979 33.537704 -9.135779 11.342764 -11.330933 -17.039008 58.046858 0.881877 7.746651 -18.950594 -0.068200 1.684300 -4.634000 0.390742 1.832055 1.962501 6.144243 0.956810 31.983422 -1.338194 1.773693 -13.213658 -8.769936 -0.372166 -27.498941 1.602782 1.606531 44.671301 3.017900 -0.138500 14.929600 1.722168 0.512823 1.227182 -97.506944 7.172509 16.045198 22.205105 -32.364362 -3.547723 2.197496 5.810248 -1.908288 17.339861 27.144495 5.606400 -7.125000 0.000000 0.000000 -13.854900 51.572200 -2.279200 -2.443204 -2.210674 -0.330768 91.223628 3.090378 13.263995 -21.136797 30.458303 -3.420142 -2.025990 -0.176633 -7.729161 -24.329308 8.823642 -3.617400 7.125000 0.000000 0.000000 3.313600 -20.414600 1.952900 
-10.817072 15.691934 5.749669 -1.206256 1.828879 -9.028535 14.587408 4.431259 1.817609 -40.963633 -7.674547 -11.636086 9.663956 8.013259 30.156811 -6.189543 -20.454415 -22.609713 0.163500 2.605100 7.181200 -11.468363 -2.031307 -4.151943 33.021913 -8.615339 10.308273 -11.756059 -17.291917 59.862998 0.407702 6.559816 -20.374271 -0.047100 1.400500 -3.851500 -0.043622 1.828977 2.143561 6.003650 0.923100 32.216056 -1.032759 1.839534 -13.199934 -8.749989 -0.245434 -27.451038 1.250516 1.896126 44.478762 2.972900 -0.090100 14.884500 1.725053 0.597587 1.210371 -97.422521 7.047512 16.621881 22.401731 -32.659003 -3.632964 2.270722 5.586213 -2.239042 17.969885 25.713386 5.504300 -7.125000 0.000000 0.000000 -12.869700 50.474400 -1.761700 -2.458622 -2.239711 -0.355490 91.035361 3.608044 13.846761 -21.276726 30.746039 -3.490009 -1.981171 -0.234477 -7.490460 -24.050344 8.187171 -3.346000 7.125000 0.000000 0.000000 3.476600 -21.044700 1.999900 
-10.804182 15.726038 5.829246 -0.268970 1.974336 -8.917521 14.475606 4.327395 1.568874 -41.911717 -6.841952 -10.838148 9.457727 7.895838 29.372029 -6.269146 -20.782881 -22.599496 0.144400 2.449300 6.749000 -11.479935 -2.065746 -3.957886 31.905044 -8.202993 8.983779 -12.148576 -17.489768 61.443561 -0.082110 5.332801 -22.075691 -0.107300 2.112600 -5.816900 -0.751068 1.784289 2.053452 5.095366 0.986842 32.315328 -0.356557 1.915117 -13.225199 -8.786821 -0.125965 -27.456393 1.300830 2.055129 44.593356 3.054700 -0.036100 14.912900 1.828144 0.693464 1.187241 -97.358168 6.703998 16.843093 22.389246 -32.651245 -3.621232 2.224439 5.528734 -2.069170 17.566052 25.392153 5.308300 -7.125000 0.000000 0.000000 -13.092200 50.144900 -1.685700 -2.348463 -2.251161 -0.373765 90.957079 3.987708 14.156559 -21.361266 30.943499 -3.531749 -2.008002 -0.159727 -7.549008 -24.436641 8.897853 -3.667000 7.125000 0.000000 0.000000 3.223900 -20.334700 1.905600 
-10.802661 15.752265 5.915984 -0.607375 1.745606 -9.008891 14.623542 4.290298 1.201228 -41.686115 -6.046141 -9.920491 9.403377 7.754901 28.712302 -6.311482 -20.847364 -22.578277 0.166600 2.629900 7.249900 -11.431289 -2.223774 -3.592019 32.457651 -7.470872 7.791113 -12.504698 -17.643737 62.787082 -0.676220 3.579887 -23.534414 -0.140100 2.412300 -6.646600 -0.793330 1.788529 1.859328 5.606009 0.865716 32.499697 -0.415165 1.946156 -12.943859 -8.641528 -0.037654 -27.372206 0.882922 2.268235 44.375889 2.937400 -0.008700 14.887000 1.810737 0.783929 1.137666 -97.258275 6.092109 16.778591 22.260594 -32.522883 -3.560890 2.091717 5.712280 -1.454583 16.417176 26.676814 5.213600 -7.125000 0.000000 0.000000 -14.436400 51.050400 -2.190800 -2.446949 -2.276372 -0.382720 91.022480 4.535038 14.110845 -21.467297 31.192887 -3.581942 -1.975095 -0.145047 -7.235828 -24.273835 8.928759 -3.655100 7.125000 0.000000 0.000000 3.317200 -20.313300 1.962500 
-10.794425 15.775180 5.995113 -0.519102 1.790962 -9.031802 14.667962 4.198590 0.891526 -41.884568 -5.420684 -8.988059 9.297637 7.607900 27.921501 -6.357719 -20.929134 -22.429062 0.160400 2.580800 7.113700 -11.428014 -2.304788 -3.355066 32.318412 -7.142634 6.664899 -12.818045 -17.770384 63.947856 -1.084083 2.263781 -24.440522 -0.067100 1.670800 -4.596800 -0.866528 1.744214 2.032856 5.435620 0.824923 32.358541 -0.321763 1.927797 -13.142003 -8.293601 0.039879 -27.307346 0.361733 2.438157 44.598667 2.762500 -0.001300 14.922600 1.807099 0.839907 1.132435 -97.046322 5.910402 16.668228 22.188960 -32.395323 -3.529305 2.126382 5.641036 -0.904149 16.309871 26.374938 5.121100 -7.125000 0.000000 0.000000 -14.416800 50.786900 -2.093100 -2.406320 -2.289173 -0.368247 91.069247 4.734095 14.194488 -21.645932 31.502703 -3.659340 -1.931721 -0.180015 -7.294018 -23.967307 8.651315 -3.509500 7.125000 0.000000 0.000000 3.504300 -20.594000 2.051600 
